<svg height="4174" width="720" xmlns="http://www.w3.org/2000/svg">
<rect height="4174" fill="#555" width="720"></rect>
<text fill="#7f7" font-family="Courier New" font-size="12" xml:space="preserve">
<tspan x="10" y="26">28 megabytes installed</tspan>
<tspan x="10" y="42"></tspan>
<tspan x="10" y="58">node_modules</tspan>
<tspan x="10" y="74">└─┬ generator-generator@3.1.0 </tspan>
<tspan x="10" y="90">  ├─┬ chalk@1.1.3 </tspan>
<tspan x="10" y="106">  │ ├── ansi-styles@2.2.1 </tspan>
<tspan x="10" y="122">  │ ├── escape-string-regexp@1.0.5 </tspan>
<tspan x="10" y="138">  │ ├── has-ansi@2.0.0 </tspan>
<tspan x="10" y="154">  │ ├── strip-ansi@3.0.1 </tspan>
<tspan x="10" y="170">  │ └── supports-color@2.0.0 </tspan>
<tspan x="10" y="186">  ├── deep-extend@0.4.1 </tspan>
<tspan x="10" y="202">  ├─┬ generator-node@2.1.0 </tspan>
<tspan x="10" y="218">  │ ├─┬ generator-jest@1.2.0 </tspan>
<tspan x="10" y="234">  │ │ ├── lodash.camelcase@4.3.0 </tspan>
<tspan x="10" y="250">  │ │ └── lodash.upperfirst@4.3.1 </tspan>
<tspan x="10" y="266">  │ ├─┬ generator-license@5.1.0 </tspan>
<tspan x="10" y="282">  │ │ └─┬ git-config@0.0.7 </tspan>
<tspan x="10" y="298">  │ │   └── iniparser@1.0.5 </tspan>
<tspan x="10" y="314">  │ ├─┬ generator-travis@1.5.1 </tspan>
<tspan x="10" y="330">  │ │ ├── merge-and-concat@1.0.2 </tspan>
<tspan x="10" y="346">  │ │ ├── ramda@0.23.0 </tspan>
<tspan x="10" y="362">  │ │ ├─┬ sort-object@3.0.2 </tspan>
<tspan x="10" y="378">  │ │ │ ├─┬ bytewise@1.1.0 </tspan>
<tspan x="10" y="394">  │ │ │ │ ├─┬ bytewise-core@1.2.3 </tspan>
<tspan x="10" y="410">  │ │ │ │ │ └── typewise-core@1.2.0 </tspan>
<tspan x="10" y="426">  │ │ │ │ └── typewise@1.0.3 </tspan>
<tspan x="10" y="442">  │ │ │ ├── get-value@2.0.6 </tspan>
<tspan x="10" y="458">  │ │ │ ├── is-extendable@0.1.1 </tspan>
<tspan x="10" y="474">  │ │ │ ├── sort-asc@0.2.0 </tspan>
<tspan x="10" y="490">  │ │ │ ├── sort-desc@0.2.0 </tspan>
<tspan x="10" y="506">  │ │ │ └─┬ union-value@0.2.4 </tspan>
<tspan x="10" y="522">  │ │ │   ├── arr-union@3.1.0 </tspan>
<tspan x="10" y="538">  │ │ │   └─┬ set-value@0.4.3 </tspan>
<tspan x="10" y="554">  │ │ │     ├── extend-shallow@2.0.1 </tspan>
<tspan x="10" y="570">  │ │ │     ├─┬ is-plain-object@2.0.1 </tspan>
<tspan x="10" y="586">  │ │ │     │ └── isobject@1.0.2 </tspan>
<tspan x="10" y="602">  │ │ │     └─┬ to-object-path@0.3.0 </tspan>
<tspan x="10" y="618">  │ │ │       └─┬ kind-of@3.1.0 </tspan>
<tspan x="10" y="634">  │ │ │         └── is-buffer@1.1.5 </tspan>
<tspan x="10" y="650">  │ │ ├── travis-config-keys@1.0.3 </tspan>
<tspan x="10" y="666">  │ │ └─┬ yamljs@0.2.10 </tspan>
<tspan x="10" y="682">  │ │   └─┬ argparse@1.0.9 </tspan>
<tspan x="10" y="698">  │ │     └── sprintf-js@1.0.3 </tspan>
<tspan x="10" y="714">  │ ├─┬ git-remote-origin-url@2.0.0 </tspan>
<tspan x="10" y="730">  │ │ ├─┬ gitconfiglocal@1.0.0 </tspan>
<tspan x="10" y="746">  │ │ │ └── ini@1.3.4 </tspan>
<tspan x="10" y="762">  │ │ └── pify@2.3.0 </tspan>
<tspan x="10" y="778">  │ ├─┬ github-username@3.0.0 </tspan>
<tspan x="10" y="794">  │ │ └─┬ gh-got@5.0.0 </tspan>
<tspan x="10" y="810">  │ │   └── is-plain-obj@1.1.0 </tspan>
<tspan x="10" y="826">  │ └─┬ parse-author@2.0.0 </tspan>
<tspan x="10" y="842">  │   └── author-regex@1.0.0 </tspan>
<tspan x="10" y="858">  ├─┬ inquirer-npm-name@2.0.0 </tspan>
<tspan x="10" y="874">  │ └─┬ npm-name@3.0.0 </tspan>
<tspan x="10" y="890">  │   ├─┬ got@6.7.1 </tspan>
<tspan x="10" y="906">  │   │ ├─┬ create-error-class@3.0.2 </tspan>
<tspan x="10" y="922">  │   │ │ └── capture-stack-trace@1.0.0 </tspan>
<tspan x="10" y="938">  │   │ ├── duplexer3@0.1.4 </tspan>
<tspan x="10" y="954">  │   │ ├── get-stream@3.0.0 </tspan>
<tspan x="10" y="970">  │   │ ├── is-redirect@1.0.0 </tspan>
<tspan x="10" y="986">  │   │ ├── is-retry-allowed@1.1.0 </tspan>
<tspan x="10" y="1002">  │   │ ├── is-stream@1.1.0 </tspan>
<tspan x="10" y="1018">  │   │ ├── lowercase-keys@1.0.0 </tspan>
<tspan x="10" y="1034">  │   │ ├── safe-buffer@5.0.1 </tspan>
<tspan x="10" y="1050">  │   │ ├── timed-out@4.0.1 </tspan>
<tspan x="10" y="1066">  │   │ ├── unzip-response@2.0.1 </tspan>
<tspan x="10" y="1082">  │   │ └─┬ url-parse-lax@1.0.0 </tspan>
<tspan x="10" y="1098">  │   │   └── prepend-http@1.0.4 </tspan>
<tspan x="10" y="1114">  │   ├── lodash.zip@4.2.0 </tspan>
<tspan x="10" y="1130">  │   └─┬ registry-url@3.1.0 </tspan>
<tspan x="10" y="1146">  │     └─┬ rc@1.2.1 </tspan>
<tspan x="10" y="1162">  │       └── strip-json-comments@2.0.1 </tspan>
<tspan x="10" y="1178">  ├── lodash@4.17.4 </tspan>
<tspan x="10" y="1194">  ├─┬ mkdirp@0.5.1 </tspan>
<tspan x="10" y="1210">  │ └── minimist@0.0.8 </tspan>
<tspan x="10" y="1226">  ├─┬ superb@1.3.0 </tspan>
<tspan x="10" y="1242">  │ ├─┬ meow@3.7.0 </tspan>
<tspan x="10" y="1258">  │ │ ├─┬ camelcase-keys@2.1.0 </tspan>
<tspan x="10" y="1274">  │ │ │ └── camelcase@2.1.1 </tspan>
<tspan x="10" y="1290">  │ │ ├── decamelize@1.2.0 </tspan>
<tspan x="10" y="1306">  │ │ ├─┬ loud-rejection@1.6.0 </tspan>
<tspan x="10" y="1322">  │ │ │ ├─┬ currently-unhandled@0.4.1 </tspan>
<tspan x="10" y="1338">  │ │ │ │ └── array-find-index@1.0.2 </tspan>
<tspan x="10" y="1354">  │ │ │ └── signal-exit@3.0.2 </tspan>
<tspan x="10" y="1370">  │ │ ├── map-obj@1.0.1 </tspan>
<tspan x="10" y="1386">  │ │ ├─┬ normalize-package-data@2.3.8 </tspan>
<tspan x="10" y="1402">  │ │ │ ├── hosted-git-info@2.4.2 </tspan>
<tspan x="10" y="1418">  │ │ │ ├─┬ is-builtin-module@1.0.0 </tspan>
<tspan x="10" y="1434">  │ │ │ │ └── builtin-modules@1.1.1 </tspan>
<tspan x="10" y="1450">  │ │ │ ├── semver@5.3.0 </tspan>
<tspan x="10" y="1466">  │ │ │ └─┬ validate-npm-package-license@3.0.1 </tspan>
<tspan x="10" y="1482">  │ │ │   ├─┬ spdx-correct@1.0.2 </tspan>
<tspan x="10" y="1498">  │ │ │   │ └── spdx-license-ids@1.2.2 </tspan>
<tspan x="10" y="1514">  │ │ │   └── spdx-expression-parse@1.0.4 </tspan>
<tspan x="10" y="1530">  │ │ ├── object-assign@4.1.1 </tspan>
<tspan x="10" y="1546">  │ │ ├─┬ read-pkg-up@1.0.1 </tspan>
<tspan x="10" y="1562">  │ │ │ ├─┬ find-up@1.1.2 </tspan>
<tspan x="10" y="1578">  │ │ │ │ └── path-exists@2.1.0 </tspan>
<tspan x="10" y="1594">  │ │ │ └─┬ read-pkg@1.1.0 </tspan>
<tspan x="10" y="1610">  │ │ │   ├─┬ load-json-file@1.1.0 </tspan>
<tspan x="10" y="1626">  │ │ │   │ └── strip-bom@2.0.0 </tspan>
<tspan x="10" y="1642">  │ │ │   └── path-type@1.1.0 </tspan>
<tspan x="10" y="1658">  │ │ ├─┬ redent@1.0.0 </tspan>
<tspan x="10" y="1674">  │ │ │ ├─┬ indent-string@2.1.0 </tspan>
<tspan x="10" y="1690">  │ │ │ │ └─┬ repeating@2.0.1 </tspan>
<tspan x="10" y="1706">  │ │ │ │   └── is-finite@1.0.2 </tspan>
<tspan x="10" y="1722">  │ │ │ └── strip-indent@1.0.1 </tspan>
<tspan x="10" y="1738">  │ │ └── trim-newlines@1.0.0 </tspan>
<tspan x="10" y="1754">  │ └─┬ unique-random-array@1.0.0 </tspan>
<tspan x="10" y="1770">  │   └── unique-random@1.0.0 </tspan>
<tspan x="10" y="1786">  ├─┬ yeoman-generator@1.1.1 </tspan>
<tspan x="10" y="1802">  │ ├── async@2.3.0 </tspan>
<tspan x="10" y="1818">  │ ├─┬ class-extend@0.1.2 </tspan>
<tspan x="10" y="1834">  │ │ └── object-assign@2.1.1 </tspan>
<tspan x="10" y="1850">  │ ├─┬ cli-table@0.3.1 </tspan>
<tspan x="10" y="1866">  │ │ └── colors@1.0.3 </tspan>
<tspan x="10" y="1882">  │ ├─┬ cross-spawn@5.1.0 </tspan>
<tspan x="10" y="1898">  │ │ ├─┬ lru-cache@4.0.2 </tspan>
<tspan x="10" y="1914">  │ │ │ ├── pseudomap@1.0.2 </tspan>
<tspan x="10" y="1930">  │ │ │ └── yallist@2.1.2 </tspan>
<tspan x="10" y="1946">  │ │ ├─┬ shebang-command@1.2.0 </tspan>
<tspan x="10" y="1962">  │ │ │ └── shebang-regex@1.0.0 </tspan>
<tspan x="10" y="1978">  │ │ └─┬ which@1.2.14 </tspan>
<tspan x="10" y="1994">  │ │   └── isexe@2.0.0 </tspan>
<tspan x="10" y="2010">  │ ├── dargs@5.1.0 </tspan>
<tspan x="10" y="2026">  │ ├── dateformat@2.0.0 </tspan>
<tspan x="10" y="2042">  │ ├─┬ debug@2.6.4 </tspan>
<tspan x="10" y="2058">  │ │ └── ms@0.7.3 </tspan>
<tspan x="10" y="2074">  │ ├── detect-conflict@1.0.1 </tspan>
<tspan x="10" y="2090">  │ ├─┬ error@7.0.2 </tspan>
<tspan x="10" y="2106">  │ │ ├── string-template@0.2.1 </tspan>
<tspan x="10" y="2122">  │ │ └── xtend@4.0.1 </tspan>
<tspan x="10" y="2138">  │ ├─┬ find-up@2.1.0 </tspan>
<tspan x="10" y="2154">  │ │ └─┬ locate-path@2.0.0 </tspan>
<tspan x="10" y="2170">  │ │   └─┬ p-locate@2.0.0 </tspan>
<tspan x="10" y="2186">  │ │     └── p-limit@1.1.0 </tspan>
<tspan x="10" y="2202">  │ ├─┬ glob@7.1.1 </tspan>
<tspan x="10" y="2218">  │ │ ├── fs.realpath@1.0.0 </tspan>
<tspan x="10" y="2234">  │ │ ├─┬ inflight@1.0.6 </tspan>
<tspan x="10" y="2250">  │ │ │ └── wrappy@1.0.2 </tspan>
<tspan x="10" y="2266">  │ │ ├── inherits@2.0.3 </tspan>
<tspan x="10" y="2282">  │ │ ├─┬ minimatch@3.0.3 </tspan>
<tspan x="10" y="2298">  │ │ │ └─┬ brace-expansion@1.1.7 </tspan>
<tspan x="10" y="2314">  │ │ │   ├── balanced-match@0.4.2 </tspan>
<tspan x="10" y="2330">  │ │ │   └── concat-map@0.0.1 </tspan>
<tspan x="10" y="2346">  │ │ └── once@1.4.0 </tspan>
<tspan x="10" y="2362">  │ ├─┬ istextorbinary@2.1.0 </tspan>
<tspan x="10" y="2378">  │ │ ├── binaryextensions@2.0.0 </tspan>
<tspan x="10" y="2394">  │ │ ├── editions@1.3.3 </tspan>
<tspan x="10" y="2410">  │ │ └── textextensions@2.0.1 </tspan>
<tspan x="10" y="2426">  │ ├─┬ mem-fs-editor@3.0.2 </tspan>
<tspan x="10" y="2442">  │ │ ├── commondir@1.0.1 </tspan>
<tspan x="10" y="2458">  │ │ ├── ejs@2.5.6 </tspan>
<tspan x="10" y="2474">  │ │ ├─┬ globby@6.1.0 </tspan>
<tspan x="10" y="2490">  │ │ │ ├─┬ array-union@1.0.2 </tspan>
<tspan x="10" y="2506">  │ │ │ │ └── array-uniq@1.0.3 </tspan>
<tspan x="10" y="2522">  │ │ │ ├── object-assign@4.1.1 </tspan>
<tspan x="10" y="2538">  │ │ │ └─┬ pinkie-promise@2.0.1 </tspan>
<tspan x="10" y="2554">  │ │ │   └── pinkie@2.0.4 </tspan>
<tspan x="10" y="2570">  │ │ ├─┬ multimatch@2.1.0 </tspan>
<tspan x="10" y="2586">  │ │ │ ├── array-differ@1.0.0 </tspan>
<tspan x="10" y="2602">  │ │ │ └── arrify@1.0.1 </tspan>
<tspan x="10" y="2618">  │ │ └─┬ vinyl@2.0.2 </tspan>
<tspan x="10" y="2634">  │ │   ├── clone@1.0.2 </tspan>
<tspan x="10" y="2650">  │ │   ├── clone-buffer@1.0.0 </tspan>
<tspan x="10" y="2666">  │ │   ├── clone-stats@1.0.0 </tspan>
<tspan x="10" y="2682">  │ │   ├── cloneable-readable@1.0.0 </tspan>
<tspan x="10" y="2698">  │ │   ├── remove-trailing-separator@1.0.1 </tspan>
<tspan x="10" y="2714">  │ │   └── replace-ext@1.0.0 </tspan>
<tspan x="10" y="2730">  │ ├── minimist@1.2.0 </tspan>
<tspan x="10" y="2746">  │ ├── path-exists@3.0.0 </tspan>
<tspan x="10" y="2762">  │ ├── path-is-absolute@1.0.1 </tspan>
<tspan x="10" y="2778">  │ ├── pretty-bytes@4.0.2 </tspan>
<tspan x="10" y="2794">  │ ├── read-chunk@2.0.0 </tspan>
<tspan x="10" y="2810">  │ ├─┬ read-pkg-up@2.0.0 </tspan>
<tspan x="10" y="2826">  │ │ └─┬ read-pkg@2.0.0 </tspan>
<tspan x="10" y="2842">  │ │   ├─┬ load-json-file@2.0.0 </tspan>
<tspan x="10" y="2858">  │ │   │ ├── graceful-fs@4.1.11 </tspan>
<tspan x="10" y="2874">  │ │   │ ├─┬ parse-json@2.2.0 </tspan>
<tspan x="10" y="2890">  │ │   │ │ └─┬ error-ex@1.3.1 </tspan>
<tspan x="10" y="2906">  │ │   │ │   └── is-arrayish@0.2.1 </tspan>
<tspan x="10" y="2922">  │ │   │ └── strip-bom@3.0.0 </tspan>
<tspan x="10" y="2938">  │ │   └── path-type@2.0.0 </tspan>
<tspan x="10" y="2954">  │ ├── rimraf@2.6.1 </tspan>
<tspan x="10" y="2970">  │ ├─┬ run-async@2.3.0 </tspan>
<tspan x="10" y="2986">  │ │ └── is-promise@2.1.0 </tspan>
<tspan x="10" y="3002">  │ ├─┬ shelljs@0.7.7 </tspan>
<tspan x="10" y="3018">  │ │ ├── interpret@1.0.3 </tspan>
<tspan x="10" y="3034">  │ │ └─┬ rechoir@0.6.2 </tspan>
<tspan x="10" y="3050">  │ │   └─┬ resolve@1.3.3 </tspan>
<tspan x="10" y="3066">  │ │     └── path-parse@1.0.5 </tspan>
<tspan x="10" y="3082">  │ ├── text-table@0.2.0 </tspan>
<tspan x="10" y="3098">  │ ├─┬ through2@2.0.3 </tspan>
<tspan x="10" y="3114">  │ │ └─┬ readable-stream@2.2.9 </tspan>
<tspan x="10" y="3130">  │ │   ├── buffer-shims@1.0.0 </tspan>
<tspan x="10" y="3146">  │ │   ├── core-util-is@1.0.2 </tspan>
<tspan x="10" y="3162">  │ │   ├── isarray@1.0.0 </tspan>
<tspan x="10" y="3178">  │ │   ├── process-nextick-args@1.0.7 </tspan>
<tspan x="10" y="3194">  │ │   ├── string_decoder@1.0.0 </tspan>
<tspan x="10" y="3210">  │ │   └── util-deprecate@1.0.2 </tspan>
<tspan x="10" y="3226">  │ ├─┬ user-home@2.0.0 </tspan>
<tspan x="10" y="3242">  │ │ └── os-homedir@1.0.2 </tspan>
<tspan x="10" y="3258">  │ └─┬ yeoman-environment@1.6.6 </tspan>
<tspan x="10" y="3274">  │   ├── diff@2.2.3 </tspan>
<tspan x="10" y="3290">  │   ├─┬ globby@4.1.0 </tspan>
<tspan x="10" y="3306">  │   │ ├── glob@6.0.4 </tspan>
<tspan x="10" y="3322">  │   │ └── object-assign@4.1.1 </tspan>
<tspan x="10" y="3338">  │   ├── grouped-queue@0.3.3 </tspan>
<tspan x="10" y="3354">  │   ├─┬ inquirer@1.2.3 </tspan>
<tspan x="10" y="3370">  │   │ ├── ansi-escapes@1.4.0 </tspan>
<tspan x="10" y="3386">  │   │ ├─┬ cli-cursor@1.0.2 </tspan>
<tspan x="10" y="3402">  │   │ │ └─┬ restore-cursor@1.0.1 </tspan>
<tspan x="10" y="3418">  │   │ │   ├── exit-hook@1.1.1 </tspan>
<tspan x="10" y="3434">  │   │ │   └── onetime@1.1.0 </tspan>
<tspan x="10" y="3450">  │   │ ├── cli-width@2.1.0 </tspan>
<tspan x="10" y="3466">  │   │ ├─┬ external-editor@1.1.1 </tspan>
<tspan x="10" y="3482">  │   │ │ ├── extend@3.0.0 </tspan>
<tspan x="10" y="3498">  │   │ │ ├─┬ spawn-sync@1.0.15 </tspan>
<tspan x="10" y="3514">  │   │ │ │ ├─┬ concat-stream@1.6.0 </tspan>
<tspan x="10" y="3530">  │   │ │ │ │ └── typedarray@0.0.6 </tspan>
<tspan x="10" y="3546">  │   │ │ │ └── os-shim@0.1.3 </tspan>
<tspan x="10" y="3562">  │   │ │ └─┬ tmp@0.0.29 </tspan>
<tspan x="10" y="3578">  │   │ │   └── os-tmpdir@1.0.2 </tspan>
<tspan x="10" y="3594">  │   │ ├─┬ figures@1.7.0 </tspan>
<tspan x="10" y="3610">  │   │ │ └── object-assign@4.1.1 </tspan>
<tspan x="10" y="3626">  │   │ ├── mute-stream@0.0.6 </tspan>
<tspan x="10" y="3642">  │   │ ├── rx@4.1.0 </tspan>
<tspan x="10" y="3658">  │   │ └── through@2.3.8 </tspan>
<tspan x="10" y="3674">  │   ├── log-symbols@1.0.2 </tspan>
<tspan x="10" y="3690">  │   ├─┬ mem-fs@1.1.3 </tspan>
<tspan x="10" y="3706">  │   │ ├─┬ vinyl@1.2.0 </tspan>
<tspan x="10" y="3722">  │   │ │ ├── clone-stats@0.0.1 </tspan>
<tspan x="10" y="3738">  │   │ │ └── replace-ext@0.0.1 </tspan>
<tspan x="10" y="3754">  │   │ └─┬ vinyl-file@2.0.0 </tspan>
<tspan x="10" y="3770">  │   │   ├─┬ strip-bom@2.0.0 </tspan>
<tspan x="10" y="3786">  │   │   │ └── is-utf8@0.2.1 </tspan>
<tspan x="10" y="3802">  │   │   ├─┬ strip-bom-stream@2.0.0 </tspan>
<tspan x="10" y="3818">  │   │   │ ├── first-chunk-stream@2.0.0 </tspan>
<tspan x="10" y="3834">  │   │   │ └── strip-bom@2.0.0 </tspan>
<tspan x="10" y="3850">  │   │   └─┬ vinyl@1.2.0 </tspan>
<tspan x="10" y="3866">  │   │     ├── clone-stats@0.0.1 </tspan>
<tspan x="10" y="3882">  │   │     └── replace-ext@0.0.1 </tspan>
<tspan x="10" y="3898">  │   └── untildify@2.1.0 </tspan>
<tspan x="10" y="3914">  └─┬ yosay@2.0.0 </tspan>
<tspan x="10" y="3930">    ├── ansi-regex@2.1.1 </tspan>
<tspan x="10" y="3946">    ├─┬ ansi-styles@3.0.0 </tspan>
<tspan x="10" y="3962">    │ └─┬ color-convert@1.9.0 </tspan>
<tspan x="10" y="3978">    │   └── color-name@1.1.2 </tspan>
<tspan x="10" y="3994">    ├── cli-boxes@1.0.0 </tspan>
<tspan x="10" y="4010">    ├── pad-component@0.0.1 </tspan>
<tspan x="10" y="4026">    ├─┬ string-width@2.0.0 </tspan>
<tspan x="10" y="4042">    │ └── is-fullwidth-code-point@2.0.0 </tspan>
<tspan x="10" y="4058">    ├─┬ taketalk@1.0.0 </tspan>
<tspan x="10" y="4074">    │ └── get-stdin@4.0.1 </tspan>
<tspan x="10" y="4090">    └─┬ wrap-ansi@2.1.0 </tspan>
<tspan x="10" y="4106">      └─┬ string-width@1.0.2 </tspan>
<tspan x="10" y="4122">        ├── code-point-at@1.1.0 </tspan>
<tspan x="10" y="4138">        └─┬ is-fullwidth-code-point@1.0.0 </tspan>
<tspan x="10" y="4154">          └── number-is-nan@1.0.1</tspan>
</text>
</svg>
